<svg width="59" height="59" viewBox="0 0 59 59" fill="none" xmlns="http://www.w3.org/2000/svg">
<path d="M17.1618 11.0625C18.8618 11.0625 20.4323 11.192 21.8732 11.5806C23.3142 11.8396 24.4961 12.3739 25.5484 13.0215C26.6008 13.6692 27.3779 14.592 27.9122 15.7739C28.4303 16.9558 28.7056 18.3967 28.7056 19.9672C28.7056 21.7967 28.317 23.3672 27.3941 24.5491C26.6008 25.731 25.3056 26.7834 23.7189 27.5605C25.9532 28.2081 27.6532 29.39 28.6894 30.9605C29.7255 32.531 30.3894 34.49 30.3894 36.7243C30.3894 38.5538 30.0008 40.1242 29.337 41.4357C28.6894 42.7471 27.637 43.929 26.4551 44.7061C25.2732 45.4995 23.8322 46.1471 22.2618 46.5356C20.6913 46.9242 19.1208 47.1833 17.5504 47.1833L0 47.2156V11.0625H17.1618ZM16.1094 25.731C17.5504 25.731 18.7323 25.3424 19.6389 24.6786C20.5456 24.0148 20.9504 22.8491 20.9504 21.4082C20.9504 20.6148 20.8208 19.8377 20.5618 19.3196C20.3027 18.8015 19.9142 18.3967 19.3799 18.0082C18.8618 17.7491 18.3275 17.4901 17.6799 17.3606C17.0323 17.231 16.3685 17.231 15.5913 17.231H7.99805V25.7472C7.99805 25.731 16.1094 25.731 16.1094 25.731ZM16.498 41.1928C17.2913 41.1928 18.0685 41.0633 18.7323 40.9338C19.3799 40.8042 20.0437 40.5452 20.5618 40.1404C21.0799 39.7357 21.4846 39.3471 21.8732 38.6995C22.1323 38.0519 22.3913 37.2585 22.3913 36.3357C22.3913 34.5062 21.8732 33.1948 20.8208 32.2719C19.7685 31.4786 18.3275 31.09 16.6275 31.09H7.99805V41.1766H16.498V41.1928Z" fill="black"/>
<path d="M41.7874 41.0633C42.8398 42.1157 44.4102 42.6338 46.4988 42.6338C47.9397 42.6338 49.2512 42.2452 50.3035 41.5814C51.3559 40.7881 52.0035 40.0109 52.2626 39.2176H58.674C57.6216 42.3585 56.0511 44.5928 53.9626 46.0337C51.874 47.3452 49.3807 48.1223 46.3693 48.1223C44.2807 48.1223 42.435 47.7337 40.735 47.0699C39.035 46.4223 37.7236 45.4995 36.5417 44.188C35.3598 43.0061 34.4531 41.5652 33.9189 39.8652C33.2712 38.1652 32.996 36.3357 32.996 34.2309C32.996 32.2719 33.2551 30.4262 33.9189 28.7262C34.5827 27.0262 35.4893 25.5853 36.6712 24.2739C37.8531 23.092 39.2941 22.0396 40.8645 21.392C42.5645 20.7444 44.2645 20.3396 46.3693 20.3396C48.6035 20.3396 50.5626 20.7282 52.2626 21.651C53.9626 22.5739 55.274 23.6101 56.3263 25.1805C57.3787 26.6215 58.1559 28.3215 58.6901 30.151C58.9492 31.9805 59.0787 33.8262 58.9492 35.9147H39.9579C39.9579 38.0519 40.735 40.0109 41.7874 41.0633ZM50.0445 27.3015C49.1216 26.3786 47.6807 25.8605 45.9807 25.8605C44.7988 25.8605 43.8921 26.1196 43.0988 26.5081C42.3055 26.8967 41.7874 27.431 41.2693 27.9491C40.7512 28.4672 40.476 29.131 40.3464 29.7786C40.2169 30.4262 40.0874 30.9605 40.0874 31.4786H51.874C51.6149 29.5357 50.9511 28.2243 50.0445 27.3015ZM38.5169 13.5558H53.1854V17.0853H38.5169V13.5558Z" fill="black"/>
</svg>
