<svg width="59" height="59" viewBox="0 0 59 59" fill="none" xmlns="http://www.w3.org/2000/svg">
<path d="M29.5028 0C21.491 0 20.4855 0.0350322 17.3388 0.178232C14.1983 0.322046 12.0546 0.819248 10.1788 1.54877C8.23858 2.30225 6.5927 3.31018 4.95298 4.95052C3.31202 6.59025 2.3041 8.23612 1.54815 10.1758C0.816789 12.0521 0.318972 14.1964 0.177616 17.3357C0.0368751 20.4824 0 21.4885 0 29.5003C0 37.5121 0.0356468 38.5145 0.178232 41.6612C0.32266 44.8017 0.819863 46.9454 1.54877 48.8212C2.30287 50.7614 3.31079 52.4073 4.95113 54.047C6.59025 55.688 8.23612 56.6984 10.1751 57.4518C12.0521 58.1814 14.1964 58.6786 17.3363 58.8224C20.483 58.9656 21.4879 59.0006 29.4991 59.0006C37.5115 59.0006 38.5139 58.9656 41.6606 58.8224C44.8011 58.6786 46.9473 58.1814 48.8242 57.4518C50.7639 56.6984 52.4073 55.688 54.0464 54.047C55.6874 52.4073 56.6953 50.7614 57.4512 48.8218C58.1764 46.9454 58.6743 44.8011 58.8218 41.6618C58.9631 38.5151 59 37.5121 59 29.5003C59 21.4885 58.9631 20.483 58.8218 17.3363C58.6743 14.1958 58.1764 12.0521 57.4512 10.1764C56.6953 8.23612 55.6874 6.59025 54.0464 4.95052C52.4055 3.30957 50.7645 2.30164 48.8224 1.54877C46.9418 0.819248 44.7968 0.322046 41.6563 0.178232C38.5096 0.0350322 37.5078 0 29.4935 0H29.5028ZM26.8563 5.3162C27.6418 5.31497 28.5182 5.3162 29.5028 5.3162C37.3793 5.3162 38.3129 5.34447 41.4234 5.48583C44.2996 5.61735 45.8607 6.09796 46.9006 6.50174C48.2773 7.03644 49.2588 7.67561 50.2907 8.70812C51.3232 9.74063 51.9623 10.724 52.4983 12.1007C52.902 13.1393 53.3833 14.7004 53.5142 17.5767C53.6555 20.6865 53.6863 21.6206 53.6863 29.4935C53.6863 37.3664 53.6555 38.3006 53.5142 41.4104C53.3826 44.2867 52.902 45.8478 52.4983 46.8864C51.9636 48.2631 51.3232 49.2434 50.2907 50.2753C49.2581 51.3078 48.2779 51.947 46.9006 52.4817C45.8619 52.8873 44.2996 53.3667 41.4234 53.4982C38.3135 53.6395 37.3793 53.6703 29.5028 53.6703C21.6256 53.6703 20.692 53.6395 17.5822 53.4982C14.7059 53.3654 13.1448 52.8848 12.1043 52.481C10.7277 51.9464 9.74432 51.3072 8.71181 50.2747C7.6793 49.2422 7.04013 48.2613 6.5042 46.884C6.10042 45.8453 5.61919 44.2843 5.48829 41.408C5.34693 38.2982 5.31866 37.364 5.31866 29.4862C5.31866 21.6084 5.34693 20.6791 5.48829 17.5693C5.61981 14.693 6.10042 13.1319 6.5042 12.0921C7.0389 10.7154 7.6793 9.73203 8.71181 8.69952C9.74432 7.66701 10.7277 7.02783 12.1043 6.49191C13.1442 6.08628 14.7059 5.6069 17.5822 5.47477C20.3036 5.35185 21.3582 5.31497 26.8563 5.30883V5.3162ZM45.2498 10.2145C43.2954 10.2145 41.7097 11.7983 41.7097 13.7533C41.7097 15.7077 43.2954 17.2933 45.2498 17.2933C47.2042 17.2933 48.7898 15.7077 48.7898 13.7533C48.7898 11.7989 47.2042 10.2133 45.2498 10.2133V10.2145ZM29.5028 14.3507C21.1364 14.3507 14.3531 21.1339 14.3531 29.5003C14.3531 37.8667 21.1364 44.6469 29.5028 44.6469C37.8692 44.6469 44.6499 37.8667 44.6499 29.5003C44.6499 21.1339 37.8686 14.3507 29.5022 14.3507H29.5028ZM29.5028 19.6669C34.9333 19.6669 39.3362 24.0692 39.3362 29.5003C39.3362 34.9308 34.9333 39.3337 29.5028 39.3337C24.0716 39.3337 19.6693 34.9308 19.6693 29.5003C19.6693 24.0692 24.0716 19.6669 29.5028 19.6669Z" fill="black"/>
</svg>
