<svg width="59" height="59" viewBox="0 0 59 59" fill="none" xmlns="http://www.w3.org/2000/svg">
<path d="M0 4.22638C0 1.89284 1.93967 0 4.3325 0H54.6675C57.0602 0 59 1.89285 59 4.22639V54.7736C59 57.1079 57.0602 59 54.6675 59L4.3325 59C1.93967 59 0 57.1079 0 54.7736V4.22638ZM18.2287 49.3891V22.7473H9.37347V49.3891H18.2287ZM13.801 19.1098C16.889 19.1098 18.8111 17.064 18.8111 14.5074C18.7535 11.8932 16.8891 9.90415 13.8596 9.90415C10.8305 9.90415 8.85 11.8932 8.85 14.5074C8.85 17.064 10.7716 19.1098 13.7433 19.1098H13.801ZM31.902 49.3891V34.5112C31.902 33.715 31.9596 32.9195 32.1934 32.3503C32.8336 30.7594 34.2906 29.1117 36.7369 29.1117C39.9412 29.1117 41.223 31.5549 41.223 35.1364V49.3891H50.0774V34.1131C50.0774 25.9299 45.7087 22.1221 39.8827 22.1221C35.1853 22.1221 33.0791 24.7039 31.9023 26.5193V26.6111H31.8431C31.8626 26.5807 31.8823 26.5501 31.9023 26.5193V22.7473H23.0471C23.1633 25.2472 23.0471 49.3891 23.0471 49.3891H31.902Z" fill="#121212"/>
</svg>
