<svg width="21" height="21" viewBox="0 0 21 21" fill="none" xmlns="http://www.w3.org/2000/svg">
<path d="M0 1.50431C0 0.673723 0.690391 0 1.54208 0H19.4579C20.3096 0 21 0.673726 21 1.50431V19.4957C21 20.3266 20.3096 21 19.4579 21L1.54208 21C0.690391 21 0 20.3266 0 19.4957V1.50431ZM6.48819 17.5792V8.0965H3.33632V17.5792H6.48819ZM4.91224 6.8018C6.01136 6.8018 6.69547 6.07364 6.69547 5.16364C6.67498 4.23316 6.01136 3.52521 4.93309 3.52521C3.85493 3.52521 3.15 4.23316 3.15 5.16364C3.15 6.07364 3.83396 6.8018 4.89169 6.8018H4.91224ZM11.355 17.5792V12.2836C11.355 12.0002 11.3754 11.7171 11.4587 11.5145C11.6865 10.9483 12.2051 10.3618 13.0758 10.3618C14.2164 10.3618 14.6726 11.2314 14.6726 12.5062V17.5792H17.8242V12.1419C17.8242 9.22929 16.2692 7.87398 14.1955 7.87398C12.5236 7.87398 11.7739 8.79292 11.355 9.43907V9.47173H11.334C11.3409 9.46093 11.3479 9.45004 11.355 9.43907V8.0965H8.20321C8.24457 8.98629 8.20321 17.5792 8.20321 17.5792H11.355Z" fill="#F5F5F5"/>
</svg>
